<svg width="72" height="30" viewBox="0 0 72 30" fill="none" xmlns="http://www.w3.org/2000/svg">
<path d="M0.840088 0.919983H4.52009V19.896H14.4401L14.0241 23H0.840088V0.919983Z" fill="black"/>
<path d="M25.8196 5.65598C28.2516 5.65598 30.1289 6.45598 31.4516 8.05598C32.7743 9.63465 33.4356 11.7893 33.4356 14.52C33.4356 17.2507 32.7636 19.416 31.4196 21.016C30.0756 22.616 28.1983 23.416 25.7876 23.416C23.3556 23.416 21.4676 22.6373 20.1236 21.08C18.8009 19.5013 18.1396 17.3253 18.1396 14.552C18.1396 11.864 18.8116 9.70932 20.1556 8.08798C21.5209 6.46665 23.4089 5.65598 25.8196 5.65598ZM25.8196 8.43998C24.5183 8.43998 23.5369 8.94132 22.8756 9.94398C22.2356 10.9467 21.9156 12.4827 21.9156 14.552C21.9156 16.6427 22.2356 18.1893 22.8756 19.192C23.5156 20.1733 24.4863 20.664 25.7876 20.664C27.0889 20.664 28.0596 20.1627 28.6996 19.16C29.3396 18.1573 29.6596 16.6107 29.6596 14.52C29.6596 12.4507 29.3396 10.9253 28.6996 9.94398C28.0596 8.94132 27.0996 8.43998 25.8196 8.43998Z" fill="black"/>
<path d="M53.3911 6.93598C52.7724 7.14932 52.0684 7.29865 51.2791 7.38398C50.5111 7.44798 49.5831 7.47998 48.4951 7.47998C49.5191 7.94932 50.2871 8.53598 50.7991 9.23998C51.3111 9.94398 51.5671 10.7973 51.5671 11.8C51.5671 12.9093 51.2898 13.8907 50.7351 14.744C50.2018 15.5973 49.4338 16.2693 48.4311 16.76C47.4284 17.2507 46.2444 17.496 44.8791 17.496C43.9191 17.496 43.1511 17.4 42.5751 17.208C42.3404 17.3787 42.1591 17.592 42.0311 17.848C41.9031 18.0827 41.8391 18.3386 41.8391 18.616C41.8391 19.4693 42.5324 19.896 43.9191 19.896H46.8631C48.0578 19.896 49.1244 20.0987 50.0631 20.504C51.0018 20.9093 51.7271 21.4747 52.2391 22.2C52.7724 22.904 53.0391 23.704 53.0391 24.6C53.0391 26.2853 52.3138 27.5867 50.8631 28.504C49.4124 29.4427 47.3218 29.912 44.5911 29.912C42.6924 29.912 41.1884 29.7093 40.0791 29.304C38.9911 28.92 38.2124 28.344 37.7431 27.576C37.2951 26.8293 37.0711 25.8587 37.0711 24.664H40.2711C40.2711 25.304 40.3884 25.8053 40.6231 26.168C40.8791 26.552 41.3164 26.8293 41.9351 27C42.5538 27.192 43.4498 27.288 44.6231 27.288C46.3298 27.288 47.5564 27.0747 48.3031 26.648C49.0498 26.2427 49.4231 25.6347 49.4231 24.824C49.4231 24.1413 49.1244 23.608 48.5271 23.224C47.9511 22.8613 47.1618 22.68 46.1591 22.68H43.2471C41.7324 22.68 40.5804 22.3707 39.7911 21.752C39.0231 21.1333 38.6391 20.3547 38.6391 19.416C38.6391 18.84 38.7991 18.2853 39.1191 17.752C39.4391 17.2187 39.8978 16.76 40.4951 16.376C39.4924 15.8427 38.7564 15.2027 38.2871 14.456C37.8391 13.688 37.6151 12.7493 37.6151 11.64C37.6151 10.4667 37.9138 9.43198 38.5111 8.53598C39.1084 7.61865 39.9404 6.91465 41.0071 6.42398C42.0738 5.91198 43.2898 5.65598 44.6551 5.65598C46.4898 5.67732 47.9404 5.54932 49.0071 5.27198C50.0951 4.99465 51.2471 4.55732 52.4631 3.95998L53.3911 6.93598ZM44.6871 8.15198C43.5564 8.15198 42.7031 8.47198 42.1271 9.11198C41.5511 9.73065 41.2631 10.5733 41.2631 11.64C41.2631 12.728 41.5511 13.592 42.1271 14.232C42.7244 14.8507 43.5884 15.16 44.7191 15.16C45.7858 15.16 46.5964 14.8507 47.1511 14.232C47.7058 13.6133 47.9831 12.728 47.9831 11.576C47.9831 9.29332 46.8844 8.15198 44.6871 8.15198Z" fill="black"/>
<path d="M64.1946 5.65598C66.6266 5.65598 68.5039 6.45598 69.8266 8.05598C71.1493 9.63465 71.8106 11.7893 71.8106 14.52C71.8106 17.2507 71.1386 19.416 69.7946 21.016C68.4506 22.616 66.5733 23.416 64.1626 23.416C61.7306 23.416 59.8426 22.6373 58.4986 21.08C57.1759 19.5013 56.5146 17.3253 56.5146 14.552C56.5146 11.864 57.1866 9.70932 58.5306 8.08798C59.8959 6.46665 61.7839 5.65598 64.1946 5.65598ZM64.1946 8.43998C62.8933 8.43998 61.9119 8.94132 61.2506 9.94398C60.6106 10.9467 60.2906 12.4827 60.2906 14.552C60.2906 16.6427 60.6106 18.1893 61.2506 19.192C61.8906 20.1733 62.8613 20.664 64.1626 20.664C65.4639 20.664 66.4346 20.1627 67.0746 19.16C67.7146 18.1573 68.0346 16.6107 68.0346 14.52C68.0346 12.4507 67.7146 10.9253 67.0746 9.94398C66.4346 8.94132 65.4746 8.43998 64.1946 8.43998Z" fill="black"/>
</svg>
